<svg width="15" height="15" viewBox="0 0 15 15" fill="none" xmlns="http://www.w3.org/2000/svg">
<path d="M0.984381 7.25652C0.982164 5.63112 1.60652 4.0674 2.72761 2.89051C3.31915 2.2663 4.03184 1.76937 4.82207 1.43012C5.6123 1.09086 6.46344 0.916429 7.32341 0.917485M9.85903 1.44489C10.5809 1.76075 11.2377 2.20819 11.7959 2.76436C12.3884 3.3527 12.8584 4.0526 13.1787 4.82364C13.4991 5.59468 13.6635 6.42157 13.6624 7.25652C13.6624 8.03685 13.5214 8.78454 13.2631 9.47518M7.32341 13.5955C8.15368 13.5966 8.97603 13.4341 9.74345 13.1172C10.5109 12.8003 11.2083 12.3352 11.7959 11.7487" stroke="white" stroke-width="1.52137" stroke-linecap="round" stroke-linejoin="round"/>
</svg>
