<svg width="14" height="14" viewBox="0 0 14 14" fill="none" xmlns="http://www.w3.org/2000/svg">
<path d="M7.30842 5.3548C6.80405 5.3548 6.32034 5.55516 5.9637 5.9118C5.60706 6.26844 5.40671 6.75215 5.40671 7.25651C5.40671 7.76088 5.60706 8.24458 5.9637 8.60122C6.32034 8.95786 6.80405 9.15822 7.30842 9.15822C7.81278 9.15822 8.29649 8.95786 8.65313 8.60122C9.00977 8.24458 9.21012 7.76088 9.21012 7.25651C9.21012 6.75215 9.00977 6.26844 8.65313 5.9118C8.29649 5.55516 7.81278 5.3548 7.30842 5.3548ZM7.30842 4.087C8.14902 4.087 8.9552 4.42093 9.5496 5.01533C10.144 5.60973 10.4779 6.4159 10.4779 7.25651C10.4779 8.09712 10.144 8.9033 9.5496 9.4977C8.9552 10.0921 8.14902 10.426 7.30842 10.426C6.46781 10.426 5.66163 10.0921 5.06723 9.4977C4.47283 8.9033 4.1389 8.09712 4.1389 7.25651C4.1389 6.4159 4.47283 5.60973 5.06723 5.01533C5.66163 4.42093 6.46781 4.087 7.30842 4.087ZM11.4288 3.92852C11.4288 4.13867 11.3453 4.34022 11.1967 4.48882C11.0481 4.63742 10.8466 4.7209 10.6364 4.7209C10.4263 4.7209 10.2247 4.63742 10.0761 4.48882C9.92751 4.34022 9.84403 4.13867 9.84403 3.92852C9.84403 3.71837 9.92751 3.51682 10.0761 3.36822C10.2247 3.21962 10.4263 3.13614 10.6364 3.13614C10.8466 3.13614 11.0481 3.21962 11.1967 3.36822C11.3453 3.51682 11.4288 3.71837 11.4288 3.92852ZM7.30842 2.18529C5.74014 2.18529 5.48404 2.18972 4.75442 2.22205C4.25744 2.24551 3.92401 2.31207 3.61466 2.43251C3.35579 2.52755 3.12175 2.6799 2.93005 2.87814C2.73164 3.06983 2.57909 3.30386 2.48378 3.56276C2.36334 3.87337 2.29678 4.20617 2.27396 4.70252C2.24099 5.40235 2.23656 5.64703 2.23656 7.25651C2.23656 8.82542 2.24099 9.08088 2.27332 9.81051C2.29678 10.3069 2.36334 10.6409 2.48314 10.9496C2.59091 11.2254 2.71769 11.4238 2.92814 11.6342C3.14177 11.8472 3.34018 11.9747 3.61276 12.0799C3.92591 12.201 4.25934 12.2681 4.75379 12.291C5.45361 12.3239 5.6983 12.3277 7.30778 12.3277C8.87669 12.3277 9.13215 12.3233 9.86178 12.291C10.3575 12.2675 10.6909 12.201 11.0009 12.0811C11.2595 11.9856 11.4935 11.8334 11.6855 11.6355C11.8991 11.4225 12.0266 11.2241 12.1318 10.9509C12.2522 10.639 12.3194 10.3056 12.3422 9.80987C12.3752 9.11068 12.379 8.86536 12.379 7.25651C12.379 5.68824 12.3746 5.43214 12.3422 4.70252C12.3188 4.2068 12.2516 3.8721 12.1318 3.56276C12.0362 3.30414 11.884 3.0702 11.6862 2.87814C11.4945 2.67963 11.2605 2.52707 11.0015 2.43187C10.6909 2.31143 10.3575 2.24487 9.86178 2.22205C9.16258 2.18909 8.9179 2.18529 7.30778 2.18529M7.30778 0.91748C9.0301 0.91748 9.24499 0.923819 9.92136 0.955515C10.5958 0.98721 11.0561 1.09307 11.4598 1.25028C11.8782 1.41129 12.2307 1.62935 12.5831 1.98117C12.9055 2.29806 13.1549 2.68137 13.314 3.10445C13.4706 3.50824 13.5771 3.96846 13.6088 4.64356C13.6386 5.3193 13.6468 5.5342 13.6468 7.25651C13.6468 8.97883 13.6405 9.19372 13.6088 9.86946C13.5771 10.5446 13.4706 11.0041 13.314 11.4086C13.1553 11.8319 12.9058 12.2153 12.5831 12.5319C12.2661 12.8541 11.8829 13.1035 11.4598 13.2627C11.0561 13.4193 10.5958 13.5258 9.92136 13.5575C9.24499 13.5873 9.0301 13.5955 7.30778 13.5955C5.58547 13.5955 5.37057 13.5892 4.6942 13.5575C4.01973 13.5258 3.56015 13.4193 3.15572 13.2627C2.73248 13.1039 2.34909 12.8545 2.03244 12.5319C1.71006 12.215 1.46063 11.8317 1.30155 11.4086C1.14434 11.0048 1.03848 10.5446 1.00678 9.86946C0.976357 9.19372 0.96875 8.97883 0.96875 7.25651C0.96875 5.5342 0.975089 5.3193 1.00678 4.64356C1.03848 3.96846 1.14434 3.50888 1.30155 3.10445C1.46017 2.68111 1.70966 2.29769 2.03244 1.98117C2.34918 1.65866 2.73254 1.40922 3.15572 1.25028C3.55951 1.09307 4.01909 0.98721 4.6942 0.955515C5.37121 0.925721 5.5861 0.91748 7.30842 0.91748" fill="white"/>
</svg>
