<svg width="11" height="7" viewBox="0 0 11 7" fill="none" xmlns="http://www.w3.org/2000/svg">
<path d="M1.44792 0.237915H4.78125C4.95806 0.237915 5.12763 0.308153 5.25265 0.433177C5.37768 0.558201 5.44792 0.727771 5.44792 0.904582C5.44792 1.08139 5.37768 1.25096 5.25265 1.37599C5.12763 1.50101 4.95806 1.57125 4.78125 1.57125H1.44792C1.27111 1.57125 1.10154 1.50101 0.976512 1.37599C0.851488 1.25096 0.78125 1.08139 0.78125 0.904582C0.78125 0.727771 0.851488 0.558201 0.976512 0.433177C1.10154 0.308153 1.27111 0.237915 1.44792 0.237915ZM6.11458 5.57125H9.44792C9.62473 5.57125 9.7943 5.64149 9.91932 5.76651C10.0443 5.89153 10.1146 6.0611 10.1146 6.23791C10.1146 6.41473 10.0443 6.58429 9.91932 6.70932C9.7943 6.83434 9.62473 6.90458 9.44792 6.90458H6.11458C5.93777 6.90458 5.7682 6.83434 5.64318 6.70932C5.51815 6.58429 5.44792 6.41473 5.44792 6.23791C5.44792 6.0611 5.51815 5.89153 5.64318 5.76651C5.7682 5.64149 5.93777 5.57125 6.11458 5.57125ZM1.44792 2.90458H9.44792C9.62473 2.90458 9.7943 2.97482 9.91932 3.09984C10.0443 3.22487 10.1146 3.39444 10.1146 3.57125C10.1146 3.74806 10.0443 3.91763 9.91932 4.04265C9.7943 4.16768 9.62473 4.23791 9.44792 4.23791H1.44792C1.27111 4.23791 1.10154 4.16768 0.976512 4.04265C0.851488 3.91763 0.78125 3.74806 0.78125 3.57125C0.78125 3.39444 0.851488 3.22487 0.976512 3.09984C1.10154 2.97482 1.27111 2.90458 1.44792 2.90458Z" fill="white"/>
</svg>
